HIERARCHY
ROOT Pelvis
{
	OFFSET -0.001795 -0.223333 0.028219
	CHANNELS 6 Xposition Yposition Zposition Zrotation Yrotation Xrotation 
	JOINT Left_hip
	{
		OFFSET 0.069520 -0.091406 -0.006815
		CHANNELS 3 Zrotation Yrotation Xrotation
		JOINT Left_knee
		{
			OFFSET 0.034277 -0.375199 -0.004496
			CHANNELS 3 Zrotation Yrotation Xrotation
			JOINT Left_ankle
			{
				OFFSET -0.013596 -0.397960 -0.043693
				CHANNELS 3 Zrotation Yrotation Xrotation
				JOINT Left_foot
				{
					OFFSET 0.026358 -0.055791 0.119288
					CHANNELS 3 Zrotation Yrotation Xrotation
					End Site
					{
						OFFSET 0.000000 0.000000 0.000000
					}
				}
			}
		}
	}
	JOINT Right_hip
	{
		OFFSET -0.067670 -0.090522 -0.004320
		CHANNELS 3 Zrotation Yrotation Xrotation
		JOINT Right_knee
		{
			OFFSET -0.038290 -0.382569 -0.008850
			CHANNELS 3 Zrotation Yrotation Xrotation
			JOINT Right_ankle
			{
				OFFSET 0.015774 -0.398415 -0.042312
				CHANNELS 3 Zrotation Yrotation Xrotation
				JOINT Right_foot
				{
					OFFSET -0.025372 -0.048144 0.123348
					CHANNELS 3 Zrotation Yrotation Xrotation
					End Site
					{
						OFFSET 0.000000 0.000000 0.000000
					}
				}
			}
		}
	}
	JOINT Spine1
	{
		OFFSET -0.002533 0.108963 -0.026696
		CHANNELS 3 Zrotation Yrotation Xrotation
		JOINT Spine2
		{
			OFFSET 0.005487 0.135180 0.001092
			CHANNELS 3 Zrotation Yrotation Xrotation
			JOINT Spine3
			{
				OFFSET 0.001457 0.052922 0.025425
				CHANNELS 3 Zrotation Yrotation Xrotation
				JOINT Neck
				{
					OFFSET -0.002778 0.213870 -0.042857
					CHANNELS 3 Zrotation Yrotation Xrotation
					JOINT Head
					{
						OFFSET 0.005152 0.064970 0.051349
						CHANNELS 3 Zrotation Yrotation Xrotation
						End Site
						{
							OFFSET 0.000000 0.000000 0.000000
						}
					}
				}
				JOINT Left_collar
				{
					OFFSET 0.078845 0.121749 -0.034090
					CHANNELS 3 Zrotation Yrotation Xrotation
					JOINT Left_shoulder
					{
						OFFSET 0.090977 0.030469 -0.008868
						CHANNELS 3 Zrotation Yrotation Xrotation
						JOINT Left_elbow
						{
							OFFSET 0.259612 -0.012772 -0.027456
							CHANNELS 3 Zrotation Yrotation Xrotation
							JOINT Left_wrist
							{
								OFFSET 0.249234 0.008986 -0.001171
								CHANNELS 3 Zrotation Yrotation Xrotation
								JOINT Left_palm
								{
									OFFSET 0.084042 -0.008162 -0.014945
									CHANNELS 3 Zrotation Yrotation Xrotation
									End Site
									{
										OFFSET 0.000000 0.000000 0.000000
									}
								}
							}
						}
					}
				}
				JOINT Right_collar
				{
					OFFSET -0.081759 0.118833 -0.038615
					CHANNELS 3 Zrotation Yrotation Xrotation
					JOINT Right_shoulder
					{
						OFFSET -0.096012 0.032551 -0.009143
						CHANNELS 3 Zrotation Yrotation Xrotation
						JOINT Right_elbow
						{
							OFFSET -0.253742 -0.013329 -0.021401
							CHANNELS 3 Zrotation Yrotation Xrotation
							JOINT Right_wrist
							{
								OFFSET -0.255298 0.007772 -0.005559
								CHANNELS 3 Zrotation Yrotation Xrotation
								JOINT Right_palm
								{
									OFFSET -0.084622 -0.006117 -0.010315
									CHANNELS 3 Zrotation Yrotation Xrotation
									End Site
									{
										OFFSET 0.000000 0.000000 0.000000
									}
								}
							}
						}
					}
				}
			}
		}
	}
}
MOTION
Frames: 14
Frame Time: 0.033333
0.062539 0.767663 -0.045964 -8.536723 -1.935487 -30.312626 8.361929 5.453295 14.008525 -4.024922 -3.512732 25.988493 2.114078 11.347728 -13.787068 -0.575175 0.493259 -2.969479 -21.580976 -0.023678 0.435505 7.337105 1.034147 46.769251 5.698567 -9.296626 -0.403592 -0.847959 2.827941 0.049378 -0.859816 -0.572624 12.873059 9.951206 -0.830213 -10.040332 5.582720 -1.474865 12.277694 3.936514 9.239926 7.115692 2.914188 -8.081639 -8.977963 12.205979 0.717228 -15.718279 24.337680 -34.878633 -67.664107 124.504114 -30.961503 -87.200279 -21.647761 3.669040 2.197996 0.000000 0.000000 0.000000 9.660843 -9.767213 -8.595311 38.521247 0.607667 -19.981273 -121.160534 45.540111 -96.760404 17.337696 19.598277 -34.446303 0.000000 0.000000 0.000000 
0.062302 0.764829 -0.046666 -8.816907 -2.050884 -30.362429 8.314263 5.176569 13.789760 -4.328930 -3.365703 26.117334 2.045272 11.327351 -14.279949 -0.613734 0.482922 -2.978339 -21.297532 -0.401740 0.072191 7.288063 0.462288 47.619485 5.514606 -9.214112 -0.124212 -0.968897 2.928645 -0.156266 -0.738188 -0.331140 13.147458 10.192236 -1.080389 -9.971571 5.919991 -1.501013 12.144367 4.129228 8.867686 7.389444 2.906572 -8.323840 -8.651189 12.141363 0.831565 -15.760758 24.448550 -35.179801 -67.734747 124.462233 -31.148412 -87.003644 -23.106950 3.311304 2.504376 0.000000 0.000000 0.000000 10.027844 -10.160123 -8.522932 38.675142 -0.326087 -19.726287 -121.072808 45.114516 -96.615989 18.635316 19.719317 -33.554763 0.000000 0.000000 0.000000 
0.061844 0.761829 -0.047081 -8.963318 -2.076542 -30.435243 8.547805 5.247003 13.217711 -4.809003 -3.326748 26.442081 1.888808 12.055223 -14.087956 -0.704884 0.418706 -2.944491 -21.197360 -0.248803 0.050372 7.362048 0.208973 48.774917 5.570267 -9.150243 -0.421987 -1.105859 2.976392 -0.156936 -0.729205 -0.183052 13.435540 10.192088 -1.024364 -10.435106 6.065989 -1.769200 12.054574 4.098002 8.923551 6.947382 3.078537 -8.165394 -8.162443 12.250190 0.979941 -15.837752 25.443718 -34.750945 -68.766282 124.440624 -31.233969 -87.072552 -23.717284 3.042285 2.896829 0.000000 0.000000 0.000000 9.940219 -10.358203 -8.504198 39.155470 -0.715861 -19.542503 -121.713288 44.740643 -97.482444 18.997491 19.705702 -34.174073 0.000000 0.000000 0.000000 
0.061670 0.763382 -0.046944 -8.837137 -1.860804 -30.340513 8.428285 4.961323 13.106835 -4.885251 -3.446231 26.646264 2.380360 12.841087 -13.576317 -0.855624 0.454148 -2.910127 -21.530738 0.216602 0.385370 7.410474 0.380926 49.476430 5.774614 -9.374573 -0.702931 -0.989987 3.187463 -0.308447 -0.714325 -0.180802 13.440142 10.227705 -1.075533 -10.449923 6.150662 -1.778917 11.889086 4.147904 8.768959 7.532178 3.234596 -8.099066 -8.620506 12.117241 0.971571 -15.775446 26.123612 -34.134790 -69.796038 124.578583 -31.318628 -87.461859 -24.421881 2.819774 3.315314 0.000000 0.000000 0.000000 9.932260 -10.605036 -8.370296 39.404259 -0.816911 -19.405797 -122.722163 44.353193 -98.229950 19.029452 19.524196 -34.105257 0.000000 0.000000 0.000000 
0.061724 0.765979 -0.046313 -9.039626 -1.885482 -30.704390 8.333127 4.828913 13.632685 -4.710049 -3.935333 26.476584 2.614689 12.941401 -13.067546 -0.991484 0.311196 -2.794806 -21.627949 0.638939 0.121560 7.467390 0.653529 50.551346 5.584393 -9.373111 -1.308766 -0.674330 3.116501 -0.383541 -0.641931 -0.189920 13.807754 10.359170 -0.992543 -10.525588 6.204175 -1.718692 11.700967 4.518183 9.098558 8.482477 3.182639 -7.899702 -8.806803 12.004542 1.352203 -15.802621 26.682086 -33.648135 -70.793194 125.018722 -30.963283 -87.897164 -25.264930 2.988894 2.975141 0.000000 0.000000 0.000000 10.868974 -10.984063 -8.366667 39.408518 -1.152338 -19.675446 -123.181693 44.368539 -98.581571 19.420055 20.002227 -33.681610 0.000000 0.000000 0.000000 
0.061594 0.768064 -0.046157 -9.449500 -2.094015 -31.053001 8.976382 4.901504 13.853650 -4.415561 -3.955971 26.797471 2.352214 12.725707 -12.536002 -0.876748 0.280184 -2.994268 -21.608629 0.900746 -0.359172 8.147596 0.667319 52.821909 5.547724 -8.538219 -1.133338 -0.623687 2.927196 -0.346703 -0.792783 -0.186768 14.076972 10.323517 -0.512816 -10.994054 5.906693 -1.678427 11.754389 4.615050 10.324927 9.248104 2.499786 -7.217819 -8.817766 12.146968 1.445730 -15.708092 27.195601 -33.460322 -71.293765 126.527817 -30.679110 -88.762816 -25.594931 3.171833 2.384824 0.000000 0.000000 0.000000 11.373225 -10.916162 -8.274108 39.102423 -0.858480 -19.958769 -122.614043 45.251175 -98.129214 19.074229 20.371321 -33.969062 0.000000 0.000000 0.000000 
0.061196 0.773431 -0.046713 -9.436405 -2.096174 -31.132956 9.641756 5.155113 13.954764 -4.280134 -3.485491 26.570416 2.463782 12.513926 -12.318029 -0.671147 0.205973 -3.002354 -21.920256 0.868438 -0.448161 8.696322 0.133899 54.697074 5.672278 -7.927565 -0.059065 -0.610694 2.920496 -0.135184 -0.740781 -0.164723 14.111613 10.482011 -0.292278 -11.190351 5.765664 -1.637924 12.158219 4.610984 10.263646 9.470320 2.556918 -7.644556 -8.770571 12.243297 0.968621 -15.571801 27.501322 -33.379290 -71.155204 127.713228 -30.711457 -89.993109 -25.401442 2.499169 2.085477 0.000000 0.000000 0.000000 11.294954 -10.529448 -8.176630 38.686892 -0.448475 -19.810193 -121.503250 46.566436 -97.298525 18.552934 20.037271 -33.201108 0.000000 0.000000 0.000000 
0.060263 0.772648 -0.048206 -9.269805 -2.086720 -30.895449 9.963901 5.768826 13.973709 -3.922849 -2.810650 25.199458 2.829454 12.579657 -11.620252 -0.783521 0.183881 -3.004416 -22.601495 0.735001 -0.861485 8.255414 -0.356069 55.358497 5.641976 -7.587513 -0.080578 -0.501671 3.004065 0.178348 -0.693142 -0.134633 13.900937 10.513984 -0.170683 -11.311376 5.622346 -1.402393 12.557563 4.561103 10.120036 10.085382 2.596324 -8.079559 -8.957545 12.636145 1.135609 -15.057682 27.581596 -32.523841 -70.768580 128.747827 -31.293698 -91.605513 -25.332922 1.822062 2.109628 0.000000 0.000000 0.000000 11.343201 -10.698276 -8.033142 38.990653 -0.545757 -20.006120 -119.731952 47.352670 -95.630703 17.626481 19.600952 -31.345190 0.000000 0.000000 0.000000 
0.059233 0.771047 -0.049967 -9.145791 -2.168581 -30.733107 10.073556 5.910020 13.976860 -3.695085 -2.607855 24.925679 2.954094 12.282212 -11.271372 -0.883266 0.137073 -3.212883 -22.370854 0.832963 -1.461338 8.023360 -0.137739 55.467756 5.850510 -7.155124 -0.610960 -0.540650 3.132320 0.089453 -0.763711 -0.260621 13.276421 10.291507 0.005058 -10.752510 5.251787 -1.100264 12.350030 4.683388 10.166396 10.988137 2.456470 -8.243291 -9.443347 12.986205 1.233830 -14.805212 27.018198 -31.383020 -70.597579 129.132739 -31.942006 -92.801240 -25.651965 1.828927 2.034234 0.000000 0.000000 0.000000 11.682280 -10.826356 -7.960452 39.223318 -1.118234 -19.687346 -118.051850 48.359733 -94.144020 17.655210 19.209531 -29.437835 0.000000 0.000000 0.000000 
0.058342 0.773077 -0.051796 -9.061430 -2.222902 -30.543658 10.269649 5.677213 14.345534 -3.872106 -2.587192 24.380420 2.937404 11.817953 -11.360131 -0.971871 0.228489 -3.219545 -22.065737 0.986400 -1.908759 8.517759 0.444143 55.609138 6.477929 -6.871989 -0.637614 -0.805778 3.200955 -0.061868 -0.908967 -0.289963 13.226752 10.117190 0.460370 -10.388426 5.023373 -1.020384 12.391470 4.652089 9.883221 10.830489 2.532840 -9.317185 -9.334869 12.815744 1.221677 -14.961153 26.805457 -30.548147 -70.643514 129.485184 -32.664980 -93.724731 -26.077593 1.466553 1.913278 0.000000 0.000000 0.000000 12.207247 -10.524791 -7.887800 39.210398 -1.847342 -19.093832 -115.998178 49.053596 -92.375684 17.732897 19.229082 -28.501171 0.000000 0.000000 0.000000 
0.057581 0.773944 -0.053230 -8.988915 -2.252906 -30.447106 10.500686 5.881008 14.624696 -4.197416 -2.302170 23.372463 2.946375 11.813626 -10.823550 -1.060788 0.270649 -2.865156 -22.044614 0.408877 -2.259541 8.523482 0.056414 55.137476 6.632185 -7.112125 -0.211809 -0.767035 3.143131 0.013652 -1.180913 -0.323899 13.186177 10.009845 0.718996 -10.206759 4.966053 -1.026828 12.059699 4.609812 9.907182 10.295583 2.447748 -9.717692 -8.638312 12.690236 1.146075 -14.955254 27.459956 -29.825120 -71.115576 129.702295 -33.333813 -94.076336 -25.622983 1.099618 2.072803 0.000000 0.000000 0.000000 12.307927 -10.254393 -7.650181 39.308904 -2.258873 -18.973892 -114.305558 49.514233 -91.292087 17.135129 19.094555 -28.517214 0.000000 0.000000 0.000000 
0.056872 0.774717 -0.053816 -9.094368 -2.326359 -30.420368 11.615104 6.039857 15.445931 -4.173959 -2.651842 22.576063 2.725143 11.638074 -10.155561 -1.269097 0.200496 -2.700936 -21.890931 0.393879 -2.349190 8.940263 0.005125 55.395273 6.244407 -7.226477 -0.777957 -0.452825 3.165167 0.040860 -1.465119 -0.685756 12.807340 9.731463 0.918021 -10.117768 5.174266 -1.155560 11.434741 4.764193 9.712283 9.910997 2.786030 -10.109102 -9.055153 12.458205 0.437779 -15.206923 28.123836 -29.396609 -71.448490 129.626124 -33.088955 -94.435719 -24.693881 0.939546 1.480001 0.000000 0.000000 0.000000 12.439405 -9.917586 -6.810343 39.367837 -2.706046 -18.732285 -113.612735 50.917742 -91.242085 16.896475 18.623111 -28.735655 0.000000 0.000000 0.000000 
0.056069 0.775601 -0.054428 -9.172720 -2.382900 -30.492043 11.788360 5.868432 16.278060 -4.038672 -2.978034 21.581589 2.700055 11.641226 -10.146109 -1.400430 0.058075 -2.827340 -21.863583 0.832266 -1.561261 9.350706 0.266426 55.438760 5.919733 -7.107130 -1.426227 -0.635072 3.271954 -0.039533 -1.647897 -0.642657 12.744279 9.643713 0.871476 -9.811130 5.254276 -1.274056 11.067250 4.845611 9.752983 9.718751 3.205916 -10.357604 -9.517760 12.385685 0.489667 -15.769210 28.189551 -29.325716 -71.464990 129.237659 -32.624849 -94.141296 -24.561447 1.269598 1.426836 0.000000 0.000000 0.000000 12.685704 -9.919549 -6.625320 39.540882 -2.847878 -18.608374 -112.982391 51.938312 -90.690472 17.156666 18.661476 -28.655536 0.000000 0.000000 0.000000 
0.055607 0.774823 -0.055459 -9.340720 -2.536157 -30.488353 11.270197 6.193597 16.564291 -3.977983 -2.924912 21.050632 2.969448 12.023795 -10.064054 -1.219873 0.145828 -2.961660 -21.792073 0.869876 -1.179379 9.118779 -0.025703 55.487097 5.427280 -6.934126 -2.269598 -0.984999 3.080075 -0.123014 -1.528531 -0.342693 12.448194 9.696446 0.669215 -9.422136 5.263227 -1.113996 10.720612 5.094052 9.967671 10.723660 3.201678 -10.390073 -9.121042 12.745496 0.379168 -15.841820 28.533301 -29.195499 -70.938342 129.217022 -32.763368 -94.210626 -24.057460 0.851344 2.155142 0.000000 0.000000 0.000000 12.639701 -9.769046 -6.680507 39.588431 -2.799203 -18.576450 -111.764324 52.427579 -89.418361 16.451569 19.017955 -28.783716 0.000000 0.000000 0.000000 
